# xmcd
#
# Track frame offsets:
#	150
#	31575
#	58174
#	82902
#	94995
#	116600
#	141022
#	166988
#	199977
#	215318
#	247340
#
# Disc length: 3622 seconds
#
# Revision: 0
# Processed by: cddbd v1.5.2PL0 Copyright (c) Steve Scherf et al.
# Submitted via: dBpowerAMP V4.0
#
DISCID=980e240b
DTITLE=Voice of the Wetlands - Box of Pictures
DYEAR=2011
DGENRE=Blues
TTITLE0=Blues for New Orleans
TTITLE1=Box of Pictures
TTITLE2=Who's Gonna Help You
TTITLE3=Row That Pirogue
TTITLE4=The Land is Leaving
TTITLE5=Crescent City Moon
TTITLE6=Murder in New Orleans
TTITLE7=Downright Ugly
TTITLE8=Just to Have My Girl
TTITLE9=Louisiana Funk
TTITLE10=Oh Katrina
EXTD=
EXTT0=
EXTT1=
EXTT2=
EXTT3=
EXTT4=
EXTT5=
EXTT6=
EXTT7=
EXTT8=
EXTT9=
EXTT10=
PLAYORDER=
